<?xml version="1.0" standalone="no"?>
<!DOCTYPE svg PUBLIC "-//W3C//DTD SVG 20010904//EN"
 "http://www.w3.org/TR/2001/REC-SVG-20010904/DTD/svg10.dtd">
<svg version="1.0" xmlns="http://www.w3.org/2000/svg"
 width="399.000000pt" height="399.000000pt" viewBox="0 0 399.000000 399.000000"
 preserveAspectRatio="xMidYMid meet">
<metadata>
Created by potrace 1.11, written by Peter Selinger 2001-2013
</metadata>
<g transform="translate(0.000000,399.000000) scale(0.100000,-0.100000)"
fill="#000000" stroke="none">
<path d="M870 3974 c0 -11 -5 -14 -17 -9 -15 5 -16 4 -5 -6 17 -18 15 -39 -4
-39 -10 0 -13 -6 -10 -18 4 -12 -8 -33 -38 -65 -24 -26 -51 -58 -59 -70 -8
-12 -17 -19 -21 -16 -3 3 9 22 28 42 37 40 37 55 0 30 -40 -26 -30 8 11 36 19
13 35 28 35 33 0 5 -5 6 -12 2 -8 -5 -9 -2 -5 9 3 10 3 17 -2 17 -14 0 -31
-26 -23 -35 4 -5 1 -5 -6 -1 -19 11 -192 -123 -192 -149 0 -3 14 -5 32 -5 34
0 32 -12 -3 -15 -12 -1 -36 -19 -55 -41 -18 -21 -33 -34 -34 -29 0 6 14 25 31
43 17 18 28 36 24 40 -11 11 -50 -44 -93 -132 -54 -108 -106 -259 -72 -206 17
26 12 -37 -5 -71 -9 -16 -17 -43 -18 -59 -1 -18 -9 -32 -19 -35 -9 -3 -19 -13
-23 -23 -5 -14 -4 -15 6 -4 7 6 19 12 26 12 7 0 -6 -27 -28 -60 -22 -33 -58
-97 -79 -143 -39 -82 -40 -82 -122 -128 -73 -41 -83 -50 -86 -78 -3 -33 8 -40
27 -17 13 15 51 28 51 18 -1 -4 -19 -19 -40 -34 l-40 -28 0 -960 c0 -596 4
-960 10 -960 14 0 28 31 23 50 -3 10 0 34 6 54 8 31 7 38 -6 43 -13 5 -14 8
-2 17 8 6 15 22 16 36 2 14 6 53 11 88 4 35 5 65 1 68 -4 2 -2 22 3 44 8 32
15 40 34 40 29 0 32 5 36 67 2 36 6 49 14 42 6 -5 14 -6 17 -2 4 3 21 -4 39
-17 40 -26 152 -195 144 -216 -3 -8 -1 -14 4 -14 6 0 10 5 10 11 0 5 5 7 10 4
7 -4 8 -43 4 -106 -3 -54 -3 -114 0 -133 6 -33 9 -35 41 -31 20 3 35 0 35 -5
0 -6 -16 -10 -36 -10 -24 0 -34 -4 -32 -12 3 -8 20 -12 44 -10 21 1 46 -2 54
-8 11 -7 1 -10 -38 -10 -39 0 -52 -4 -49 -12 2 -8 18 -12 40 -10 22 2 37 -1
37 -7 0 -6 8 -11 18 -11 14 0 15 -2 2 -10 -8 -5 -32 -10 -52 -10 -28 0 -36 -4
-32 -14 4 -10 14 -12 40 -6 28 7 34 5 30 -5 -3 -9 0 -12 10 -8 7 3 14 0 14 -6
0 -6 -6 -11 -12 -11 -9 0 -8 -3 2 -10 20 -13 6 -23 -34 -24 -33 -1 -34 -2 -34
-41 0 -33 3 -41 19 -41 23 0 25 19 4 36 -22 18 -1 31 37 23 28 -5 28 -5 29 48
1 30 1 73 1 97 -1 23 3 42 8 42 6 0 10 -16 10 -35 0 -21 5 -35 13 -35 7 0 8
-3 2 -8 -6 -4 -8 -45 -4 -107 6 -107 14 -94 9 15 -1 36 1 62 4 59 4 -4 18 -71
31 -150 33 -195 80 -359 92 -322 3 7 -1 21 -7 32 -9 17 -8 20 5 15 9 -4 14 -9
11 -12 -3 -2 2 -19 11 -36 9 -17 17 -40 17 -51 1 -11 7 -19 14 -18 7 2 12 0
13 -5 2 -15 7 -48 14 -88 4 -26 3 -44 -3 -48 -14 -9 -34 28 -26 48 4 10 1 16
-8 16 -10 0 -15 -11 -15 -30 0 -16 4 -30 8 -30 19 0 -5 -30 -25 -31 -12 0 -15
-3 -8 -6 8 -3 35 1 60 8 26 7 50 13 54 11 4 -1 5 6 2 16 -4 11 4 7 20 -11 l26
-28 425 3 c351 3 427 5 434 17 5 8 16 11 26 8 9 -4 14 -3 10 3 -3 6 0 10 7 10
19 0 -39 46 -96 76 -57 30 -154 92 -175 113 -8 7 -15 29 -15 48 l0 34 -16 -33
c-12 -26 -13 -34 -3 -36 7 -2 13 -7 13 -12 0 -5 -7 -7 -15 -4 -9 4 -15 0 -15
-10 0 -9 -7 -16 -15 -16 -18 0 -20 -20 -2 -21 6 0 0 -6 -14 -12 -14 -7 -33
-18 -42 -26 -24 -19 -155 -29 -167 -12 -3 4 -27 16 -53 27 -27 10 -74 43 -105
72 -31 28 -59 52 -63 52 -4 0 -11 9 -14 20 -4 11 -11 18 -16 15 -5 -4 -9 -1
-9 6 0 6 -29 40 -64 74 -36 35 -81 87 -102 116 -65 93 -200 398 -220 496 -5
25 -2 34 15 45 23 14 28 57 10 75 -20 20 -49 115 -54 173 -3 30 -7 67 -11 82
-3 16 -1 28 5 28 6 0 6 11 0 32 -11 41 -12 38 7 38 9 0 19 -10 22 -22 13 -53
20 35 9 122 -8 66 -8 116 0 187 10 87 51 256 70 286 4 6 8 18 9 27 3 21 34
141 41 160 4 8 5 18 5 23 -3 12 16 8 20 -5 2 -6 10 15 18 48 8 32 35 108 62
167 39 88 60 123 113 180 69 74 110 103 121 85 3 -5 20 -7 38 -4 17 3 47 8 66
11 19 3 46 14 60 24 40 29 87 51 94 44 3 -4 6 -2 6 4 0 15 55 33 100 33 22 0
48 -8 63 -20 14 -11 30 -20 37 -20 6 0 9 -4 6 -9 -7 -11 18 -21 55 -21 16 0
29 -4 29 -8 0 -4 -27 -5 -60 -2 -47 5 -59 3 -56 -7 4 -9 -1 -12 -17 -8 -26 7
-91 -15 -67 -22 8 -2 25 -9 37 -15 12 -6 29 -8 37 -5 9 4 16 2 16 -4 0 -7 13
-9 35 -5 44 9 46 0 3 -14 l-33 -10 37 5 c21 3 39 1 43 -5 4 -6 23 -8 43 -6 30
5 32 4 12 -3 -14 -5 -19 -9 -12 -10 7 -1 27 -14 44 -30 41 -38 129 -91 164
-97 15 -3 35 -15 43 -26 14 -21 15 -21 22 -2 6 18 8 17 17 -6 6 -14 11 -20 11
-13 1 7 7 10 15 7 19 -7 28 23 14 49 -7 12 -11 26 -10 30 1 5 -2 6 -7 3 -5 -4
-12 -2 -16 4 -3 5 -15 15 -27 21 -16 9 -19 8 -13 -3 4 -7 -11 5 -34 27 -22 21
-41 34 -41 27 0 -7 -5 -12 -10 -12 -7 0 -7 6 0 20 6 11 19 20 28 20 10 0 24 6
31 13 11 10 12 7 6 -13 -7 -21 -6 -23 7 -12 16 13 150 7 178 -9 11 -6 11 -8 2
-9 -10 0 -9 -4 3 -16 13 -14 28 -15 80 -10 35 3 66 2 69 -3 3 -5 -1 -23 -10
-40 -11 -23 -21 -31 -33 -27 -9 4 -6 -3 8 -15 14 -11 33 -18 43 -16 10 3 16 2
13 -3 -3 -4 8 -10 23 -13 15 -3 29 -1 30 4 2 5 11 9 19 9 13 0 13 -3 3 -15
-11 -13 -10 -14 6 -9 10 4 24 11 30 16 16 11 121 21 109 9 -6 -5 -21 -11 -35
-13 -14 -3 6 -4 44 -4 45 1 71 -3 73 -11 3 -7 18 -10 41 -7 l37 4 -32 -15
c-34 -16 -42 -30 -20 -38 7 -3 6 -6 -5 -6 -9 -1 -19 -5 -22 -10 -4 -5 4 -7 16
-3 21 5 22 4 9 -11 -12 -16 -12 -17 5 -12 12 4 9 0 -6 -9 -23 -14 -23 -15 -5
-17 17 -1 16 -2 -5 -10 -23 -8 -22 -8 7 -6 21 2 34 -2 38 -11 5 -12 9 -12 28
3 12 10 5 2 -15 -18 -21 -21 -43 -37 -50 -36 -7 0 -3 7 10 16 23 16 29 33 11
33 -5 0 -7 -4 -4 -10 3 -5 1 -10 -4 -10 -6 0 -13 0 -15 -1 -3 0 -24 -20 -48
-43 -34 -34 -53 -45 -90 -50 -26 -4 -54 -14 -62 -22 -8 -8 -19 -14 -25 -14 -6
0 -11 -11 -11 -24 0 -14 -4 -27 -10 -31 -5 -3 -7 -12 -3 -20 3 -9 -1 -23 -8
-31 -8 -9 -12 -29 -11 -45 2 -18 -1 -29 -8 -29 -9 0 -9 -4 0 -15 11 -13 10
-14 -6 -9 -16 6 -17 5 -6 -7 16 -17 15 -29 -2 -29 -17 0 -51 -81 -38 -89 6 -3
8 -22 6 -41 -3 -19 -6 -58 -8 -86 -1 -27 -6 -56 -11 -64 -5 -8 -9 -49 -10 -91
-1 -70 -4 -80 -31 -112 -16 -20 -41 -42 -56 -49 -36 -17 -35 -25 2 -33 30 -6
30 -7 27 -66 -1 -32 -5 -59 -9 -59 -5 0 -8 5 -8 10 0 6 -4 10 -9 10 -4 0 -6
-11 -3 -25 3 -20 9 -24 24 -19 19 6 19 5 3 -25 -17 -33 -31 -43 -21 -14 4 10
-5 5 -19 -11 -14 -16 -25 -36 -24 -45 0 -10 2 -12 6 -3 7 17 23 15 23 -3 0
-18 -61 -20 -111 -4 -48 17 -56 27 -28 37 15 6 26 6 30 0 4 -6 7 2 7 17 0 19
-3 23 -9 14 -6 -10 -9 -8 -9 9 0 12 -5 22 -11 22 -6 0 -8 -8 -4 -19 8 -25 -48
-57 -90 -52 -26 3 -27 4 -10 11 13 5 5 7 -25 7 -33 -1 -73 12 -150 47 -170 78
-215 99 -220 106 -3 3 -27 22 -55 41 -27 18 -52 37 -55 41 -13 16 -58 26 -69
15 -9 -9 -16 -37 -8 -37 27 -2 87 -36 124 -71 27 -25 56 -46 65 -46 9 0 15 4
12 9 -3 5 -10 5 -16 2 -7 -4 -8 -2 -4 4 5 8 15 8 34 1 61 -23 80 -34 76 -44
-3 -8 5 -10 26 -7 18 2 30 0 30 -7 0 -6 6 -11 13 -11 13 0 96 -56 108 -73 4
-5 10 -4 14 2 13 22 36 -8 24 -31 -10 -19 -10 -19 17 -1 l27 18 -6 -35 c-6
-31 -5 -33 7 -17 13 17 14 17 20 0 6 -15 8 -15 16 -3 7 10 10 11 10 3 0 -7 9
-13 20 -13 17 0 19 5 15 28 l-6 27 17 -30 c10 -17 19 -25 21 -17 3 6 9 12 14
12 6 0 5 -9 -1 -21 -10 -18 -10 -19 8 -10 11 6 23 7 27 3 4 -4 4 4 0 17 -6 21
-5 22 7 10 12 -10 13 -18 4 -31 -8 -13 -12 -14 -19 -5 -6 9 -7 8 -5 -2 2 -8
12 -15 22 -17 24 -3 34 -14 13 -14 -10 0 -17 -5 -17 -11 0 -5 -4 -8 -9 -5 -10
6 -25 -24 -16 -32 3 -3 5 0 5 6 0 6 7 9 15 6 8 -4 13 -10 10 -14 -3 -5 -1 -11
5 -15 5 -3 10 -1 10 4 0 6 7 11 15 11 8 0 15 -5 15 -11 0 -5 4 -8 9 -4 5 3 13
1 16 -5 4 -6 15 -8 26 -5 11 4 19 2 19 -5 0 -7 7 -10 15 -6 8 3 15 1 15 -4 0
-5 13 -7 28 -4 19 4 32 1 41 -10 11 -13 10 -19 -10 -36 -17 -14 -20 -20 -9
-20 8 -1 5 -5 -9 -11 -15 -6 -21 -14 -17 -24 11 -29 -16 -60 -87 -103 -77 -45
-117 -75 -117 -88 0 -4 10 2 23 13 12 11 70 43 128 72 98 48 108 50 140 40 19
-7 39 -16 45 -21 6 -4 18 -6 26 -3 9 4 18 -1 22 -10 3 -9 11 -13 17 -10 7 5 4
13 -7 26 -9 10 -14 19 -9 19 4 0 25 -19 46 -42 28 -32 38 -38 39 -25 0 10 5
15 11 12 6 -4 1 11 -10 34 -21 40 -30 81 -12 52 5 -7 14 -10 20 -6 7 4 19 1
28 -7 12 -9 15 -9 9 0 -12 20 12 14 35 -9 12 -12 19 -29 16 -40 -3 -11 -1 -16
5 -13 6 4 6 -1 -1 -12 -5 -11 -12 -31 -16 -46 -6 -31 -25 -38 -26 -10 0 13 -2
12 -9 -5 -6 -13 -18 -23 -30 -23 -11 0 -20 -6 -20 -12 -1 -8 -6 -6 -14 5 -13
17 -52 25 -42 8 18 -28 -83 -73 -111 -49 -10 8 -12 7 -7 -5 4 -11 1 -14 -13
-11 -14 4 -22 -3 -33 -30 -7 -20 -17 -36 -21 -36 -4 0 -20 -13 -36 -30 -15
-16 -33 -30 -40 -30 -6 0 -29 -15 -49 -34 -21 -19 -41 -33 -46 -30 -4 3 -5 -2
-2 -10 3 -9 1 -16 -6 -16 -6 0 -8 -5 -4 -12 5 -7 2 -9 -9 -5 -9 3 -17 1 -20
-6 -2 -6 -23 -12 -48 -12 -41 0 -44 -2 -45 -27 -1 -17 3 -25 11 -21 7 2 16 0
19 -5 3 -5 -4 -12 -17 -16 -35 -10 -1 -26 54 -26 47 0 85 -23 63 -38 -6 -4
-10 -24 -10 -44 0 -30 2 -34 12 -20 6 8 9 25 7 36 -4 16 -2 17 5 7 11 -15 27
2 17 19 -3 5 0 8 7 5 18 -6 93 106 78 115 -9 6 -9 13 -1 29 7 11 14 21 17 21
2 0 0 -8 -5 -19 -10 -18 -6 -31 11 -31 4 0 8 7 8 15 0 8 4 15 8 15 4 0 26 16
48 36 68 63 102 68 172 24 30 -18 50 -26 56 -20 12 12 27 13 23 3 -1 -5 3 -8
8 -8 6 0 9 6 9 13 -1 8 5 11 18 6 14 -4 18 -2 14 5 -4 6 -2 11 4 11 6 0 8 5 5
10 -4 6 17 10 54 10 40 0 60 4 58 11 -1 6 4 14 10 16 7 3 13 0 13 -6 0 -6 4
-11 10 -11 5 0 9 6 7 13 -1 7 8 11 26 10 15 -1 27 3 27 8 0 6 5 7 10 4 6 -4 8
-11 4 -16 -3 -6 4 -8 18 -5 58 12 138 17 138 8 0 -5 -15 -13 -33 -16 -20 -4
-34 -12 -34 -21 0 -17 14 -20 19 -5 2 7 14 7 36 1 31 -9 32 -9 26 17 -6 26 -6
26 9 7 14 -17 16 -18 17 -3 0 9 -4 20 -10 23 -5 3 -10 10 -10 14 0 11 48 5 64
-8 7 -6 16 -9 19 -6 4 3 5 2 2 -2 -3 -3 3 -18 12 -32 9 -14 27 -69 38 -121
l22 -95 30 3 c58 6 112 -62 138 -173 5 -19 9 -25 13 -15 3 8 13 27 23 42 22
30 26 63 5 36 -21 -29 -25 -21 -8 17 17 37 36 45 46 19 12 -31 6 -51 -24 -79
-16 -16 -30 -32 -30 -37 0 -11 88 -10 95 2 3 5 13 7 23 4 14 -5 14 -4 2 4 -10
8 -18 8 -27 0 -8 -6 -17 -8 -20 -4 -4 4 -1 11 7 16 14 9 7 14 -12 11 -5 0 -8
4 -8 9 0 15 15 12 54 -11 20 -11 41 -19 48 -16 8 2 2 10 -14 17 -16 7 -28 17
-28 22 0 5 9 4 19 -2 11 -5 24 -10 30 -10 19 0 12 18 -10 25 -11 4 -18 9 -16
12 3 2 14 0 25 -6 13 -7 22 -7 29 0 16 16 77 -4 81 -25 3 -13 0 -16 -9 -11 -9
6 -11 3 -6 -8 4 -11 1 -17 -8 -17 -8 0 -15 -4 -15 -10 0 -6 36 -10 88 -10 l89
0 -5 30 c-6 41 -66 94 -98 86 -18 -5 -22 -3 -18 8 3 8 -3 17 -14 20 -24 8 -37
37 -22 46 13 8 10 32 -5 42 -6 5 -6 8 2 8 6 0 15 -4 18 -10 11 -18 23 -11 30
17 3 15 11 31 17 34 14 9 -43 86 -69 93 -13 4 -23 14 -23 23 0 14 -4 13 -21
-6 -12 -12 -18 -25 -14 -29 4 -4 10 -1 12 6 6 15 23 16 23 1 0 -6 -7 -17 -15
-25 -8 -9 -15 -24 -15 -35 0 -10 -6 -19 -14 -19 -8 0 -16 -6 -19 -12 -3 -9
-12 -5 -26 12 l-22 24 -24 -29 c-13 -17 -24 -36 -25 -42 0 -7 -4 -13 -8 -13
-4 0 -14 6 -22 13 -8 6 -6 2 4 -11 11 -12 16 -25 12 -30 -4 -4 -13 1 -21 11
-12 17 -45 15 -45 -3 0 -8 -39 -23 -54 -21 -5 1 -6 -5 -3 -13 4 -10 1 -13 -9
-9 -16 6 -19 23 -4 23 5 0 22 13 38 28 16 16 43 34 61 42 19 7 30 18 27 26 -3
7 2 18 10 25 9 7 12 20 9 33 -4 14 -3 17 3 8 9 -13 42 -6 42 9 0 5 -7 12 -15
15 -19 8 -19 28 0 44 8 7 12 17 9 22 -4 6 2 8 14 4 17 -6 21 -2 24 21 2 15 0
45 -5 67 -5 25 -4 43 4 52 6 7 8 18 4 25 -6 8 -9 8 -15 -1 -9 -15 -30 -5 -30
14 0 7 -15 20 -32 30 -35 18 -58 31 -98 57 -14 9 -38 20 -54 23 -25 6 -28 5
-21 -11 4 -10 8 -27 9 -38 5 -36 26 -65 54 -71 29 -8 78 -57 62 -62 -6 -2 -19
7 -30 20 -17 20 -21 21 -30 8 -13 -21 -12 -30 3 -25 14 6 115 -80 106 -89 -4
-4 -21 7 -40 23 -29 27 -34 28 -44 14 -10 -13 -8 -20 12 -37 25 -22 36 -76 16
-83 -6 -2 -19 10 -28 26 -8 17 -22 31 -30 31 -8 0 -17 10 -20 23 -4 15 -14 23
-30 25 -19 1 -22 -2 -18 -21 4 -18 3 -19 -6 -7 -6 8 -8 23 -5 33 6 19 -22 25
-28 6 -3 -9 -10 -9 -26 0 -23 12 -30 31 -12 31 6 0 10 11 10 24 0 41 18 39 80
-10 33 -26 63 -45 65 -42 7 7 -92 95 -126 113 -25 13 -26 13 -26 -16 0 -16 -2
-32 -6 -35 -10 -10 -27 6 -27 26 0 13 -5 17 -15 14 -19 -8 -19 6 -1 41 8 16
17 22 21 16 3 -6 10 -9 14 -7 4 3 22 -4 39 -15 37 -22 52 -25 34 -7 -7 7 -12
20 -12 29 0 9 -7 19 -15 23 -8 3 -15 17 -15 31 0 14 -4 25 -10 25 -5 0 -10 15
-11 33 0 17 -3 26 -6 19 -2 -6 -9 -10 -13 -7 -11 7 -1 37 14 47 16 11 28 10
21 -2 -12 -19 6 -31 21 -15 14 14 18 13 41 -5 27 -21 41 -20 27 2 -5 7 -7 22
-5 33 l3 20 -16 -20 c-18 -23 -21 -13 -5 16 5 11 14 17 20 14 5 -4 9 3 9 14 0
11 5 23 11 27 16 9 45 83 54 134 7 41 8 43 22 24 14 -18 14 -17 12 16 -2 19 1
42 6 49 4 8 9 26 11 40 3 41 3 41 13 41 5 0 14 -14 21 -30 18 -44 49 -80 68
-80 12 0 13 3 4 12 -7 7 -12 25 -12 42 0 28 1 29 15 10 14 -18 15 -17 10 15
-6 32 -5 33 25 29 32 -5 60 14 40 27 -5 3 -10 14 -10 23 1 13 6 10 25 -11 30
-34 32 -26 4 19 -11 19 -16 34 -11 34 5 0 10 12 10 27 0 14 6 31 14 37 8 6 16
16 17 21 4 26 15 50 31 68 10 10 16 25 13 33 -3 8 -1 14 5 14 6 0 16 17 23 38
6 20 16 43 22 50 12 15 29 88 28 122 -1 14 2 59 6 100 l8 75 6 -90 5 -90 3
130 c2 72 5 150 6 175 2 25 5 64 6 87 1 23 5 40 9 38 4 -2 12 7 19 22 10 23
10 25 -2 14 -12 -9 -16 -8 -21 4 -3 9 -2 13 4 10 6 -3 10 2 10 12 0 14 2 15 9
4 7 -10 11 0 16 35 3 27 8 57 10 67 2 9 -1 15 -6 11 -5 -3 -9 -2 -9 1 0 13 31
64 42 72 42 27 84 191 83 328 0 94 -33 315 -46 315 -8 0 -6 -132 2 -145 11
-18 -8 -135 -22 -135 -4 0 -6 19 -2 43 4 23 6 49 6 57 -4 75 -7 270 -5 253 2
-13 8 -23 13 -23 6 0 8 -10 5 -22 -3 -13 -3 -17 0 -10 3 6 9 10 14 7 5 -3 -6
38 -23 90 -18 53 -33 91 -35 85 -2 -6 3 -29 12 -51 18 -45 19 -49 8 -49 -4 0
-14 21 -21 48 -8 26 -17 52 -21 57 -16 24 -19 44 -4 38 7 -3 14 -10 14 -16 0
-6 3 -8 6 -5 8 9 -77 185 -131 268 -26 41 -48 80 -48 87 0 7 -4 11 -9 10 -5
-1 -19 15 -31 35 -12 20 -34 54 -48 75 -14 21 -39 58 -55 83 -16 25 -35 51
-42 58 -20 22 -14 27 8 7 27 -25 25 -10 -8 50 l-27 50 -105 3 -105 2 2 -90 c1
-49 -2 -92 -7 -95 -6 -4 -7 17 -4 51 3 32 2 75 -1 96 l-7 38 -1071 0 -1072 -1
-59 -49 c-33 -27 -64 -46 -70 -43 -6 4 -3 9 5 12 9 3 35 23 59 44 34 29 39 37
24 37 -22 0 -64 -34 -64 -52 0 -6 -3 -8 -6 -5 -4 4 1 18 10 32 14 22 15 25 1
25 -8 0 -15 -7 -15 -16z m2430 -34 c7 -16 16 -27 21 -24 5 3 6 -3 2 -13 -3
-10 -2 -15 2 -10 5 4 15 -12 23 -35 8 -24 24 -56 36 -73 12 -16 28 -45 35 -62
7 -18 17 -31 21 -28 4 2 16 -5 26 -18 16 -18 16 -19 2 -8 -10 7 -18 9 -18 3 0
-5 10 -17 23 -26 l22 -17 -25 12 c-24 11 -24 11 -9 -7 9 -10 19 -28 23 -39 5
-16 3 -16 -15 5 -11 14 -17 19 -13 11 5 -10 3 -12 -5 -7 -7 4 -10 13 -8 19 2
7 -9 39 -26 72 -31 62 -47 62 -27 0 6 -19 9 -39 5 -45 -3 -5 -1 -10 5 -10 6 0
8 -4 5 -10 -3 -5 0 -10 7 -10 11 0 10 -2 0 -9 -11 -6 -8 -13 12 -28 19 -16 22
-23 13 -32 -9 -9 -8 -14 3 -22 11 -8 7 -9 -15 -5 l-30 6 22 -19 c12 -10 19
-21 16 -25 -3 -3 0 -12 7 -21 7 -8 10 -15 7 -15 -3 0 -13 -3 -23 -7 -11 -4
-15 -3 -11 4 4 6 3 22 -2 35 -7 17 -10 18 -10 6 -1 -10 -5 -18 -9 -18 -4 0 -6
16 -4 36 3 23 1 34 -6 30 -5 -3 -10 4 -11 17 -1 12 -4 56 -7 97 -3 41 -6 93
-8 115 -1 29 -6 41 -19 43 -17 4 -18 6 -21 54 -1 16 -8 34 -15 40 -10 11 -11
9 -5 -7 4 -11 4 -17 0 -13 -4 3 -8 12 -10 20 -1 7 -6 19 -10 27 -7 10 -6 12 4
6 8 -5 11 -3 8 6 -3 8 -10 13 -16 12 -6 -2 -9 4 -6 12 8 20 19 12 34 -25z m25
13 l18 -28 -21 19 c-12 11 -22 23 -22 28 0 14 7 9 25 -19z m-2402 -56 c3 -7
-3 -13 -14 -13 -13 0 -15 3 -7 13 6 7 12 13 13 13 2 0 5 -6 8 -13z m-23 -72
c0 -2 -10 -9 -22 -15 -22 -11 -22 -10 -4 4 21 17 26 19 26 11z m-195 -25 c-3
-5 -13 -10 -21 -10 -8 0 -14 -7 -14 -17 0 -9 -3 -13 -7 -10 -3 4 -12 2 -20 -4
-10 -9 -13 -8 -13 5 0 9 15 22 33 30 39 18 50 19 42 6z m2645 -10 c0 -5 -4
-10 -10 -10 -5 0 -10 5 -10 10 0 6 5 10 10 10 6 0 10 -4 10 -10z m-2733 -29
c0 -11 -5 -18 -9 -15 -4 3 -5 11 -1 19 7 21 12 19 10 -4z m817 -16 c-9 -14
-33 -33 -53 -41 -23 -10 -31 -18 -23 -23 8 -5 -1 -19 -29 -47 -29 -27 -38 -32
-30 -16 7 13 19 26 27 29 8 3 13 12 10 19 -3 8 18 32 52 58 31 25 58 46 60 46
1 0 -5 -11 -14 -25z m-779 -25 c-3 -5 -12 -10 -18 -10 -7 0 -6 4 3 10 19 12
23 12 15 0z m210 -33 c0 -32 -81 -132 -89 -111 -3 8 -2 13 2 10 12 -7 44 33
47 61 2 18 30 63 40 63 0 0 1 -10 0 -23z m2665 -121 c0 -12 -14 5 -31 39 -8
16 -6 15 10 -4 12 -13 21 -28 21 -35z m-2898 2 c-7 -7 -12 -8 -12 -2 0 14 12
26 19 19 2 -3 -1 -11 -7 -17z m418 -22 c-30 -49 -36 -46 -8 3 12 22 24 38 26
36 3 -2 -6 -20 -18 -39z m260 30 c0 -2 -8 -10 -17 -17 -16 -13 -17 -12 -4 4
13 16 21 21 21 13z m2210 -57 c0 -3 -6 -6 -14 -6 -8 0 -12 6 -9 13 2 6 0 15
-6 19 -6 3 -11 12 -11 18 0 11 39 -32 40 -44z m-2630 8 c0 -2 -10 -12 -22 -23
l-23 -19 19 23 c18 21 26 27 26 19z m2664 -13 c3 -8 2 -12 -4 -9 -6 3 -10 1
-10 -4 0 -6 -7 -11 -15 -11 -12 0 -12 3 3 19 9 11 18 20 18 20 1 1 5 -6 8 -15z
m-2548 -51 c-8 -15 -15 -25 -16 -21 0 12 23 58 27 54 3 -2 -2 -17 -11 -33z
m2555 -31 c6 -21 21 -55 31 -76 11 -22 21 -49 23 -60 1 -12 19 -86 39 -166 52
-209 55 -220 46 -220 -7 0 -16 37 -41 160 -14 70 -78 267 -110 338 -34 74 -33
73 -14 66 8 -3 19 -22 26 -42z m-2481 25 c0 -2 -10 -12 -22 -23 l-23 -19 19
23 c18 21 26 27 26 19z m465 -17 c4 -6 1 -9 -7 -8 -7 2 -12 -3 -10 -9 1 -7 -5
-13 -13 -13 -13 0 -14 4 -5 20 12 22 25 26 35 10z m-1142 -15 c-3 -9 -8 -14
-10 -11 -3 3 -2 9 2 15 9 16 15 13 8 -4z m511 -19 c-3 -9 -10 -16 -15 -16 -5
0 -4 9 3 20 14 22 21 20 12 -4z m2533 7 c-4 9 -2 17 3 17 6 0 10 -4 10 -10 0
-19 3 -25 19 -37 20 -15 9 -16 -22 -2 -12 6 -29 20 -36 32 l-14 22 23 -20 c20
-17 23 -18 17 -2z m237 -30 c9 -18 14 -33 12 -33 -6 0 -36 55 -36 66 0 11 5 3
24 -33z m-2054 22 c0 -2 -10 -10 -22 -16 -21 -11 -22 -11 -9 4 13 16 31 23 31
12z m-978 -27 c-7 -7 -12 -8 -12 -2 0 14 12 26 19 19 2 -3 -1 -11 -7 -17z
m928 -2 c0 -2 -8 -10 -17 -17 -16 -13 -17 -12 -4 4 13 16 21 21 21 13z m-706
-36 c-10 -16 -19 -28 -21 -26 -6 6 20 56 29 56 5 0 1 -13 -8 -30z m2600 22 c6
-11 -6 -26 -23 -30 -11 -2 -12 0 -3 11 7 8 9 17 5 20 -3 4 -1 7 5 7 6 0 13 -4
16 -8z m-2230 -61 c-14 -23 -31 -41 -36 -41 -11 0 -2 16 32 57 35 42 37 33 4
-16z m138 17 c-7 -7 -12 -8 -12 -2 0 14 12 26 19 19 2 -3 -1 -11 -7 -17z m512
-23 c-29 -39 -26 -43 13 -18 25 17 26 17 12 -4 -7 -12 -17 -19 -23 -16 -5 4
-6 1 -1 -7 6 -9 4 -11 -4 -6 -7 5 -22 0 -34 -11 l-22 -18 19 23 c22 26 11 29
-22 6 -12 -8 -19 -21 -16 -27 5 -8 3 -8 -7 1 -9 9 -10 15 -2 23 6 6 9 17 7 24
-3 6 2 18 11 25 18 15 21 0 3 -18 -9 -9 -9 -12 0 -12 7 0 12 4 12 8 0 8 69 62
78 62 2 0 -9 -16 -24 -35z m-329 -14 c3 -6 -4 -15 -15 -21 -20 -11 -21 -10
-10 9 12 23 16 25 25 12z m386 -5 c-21 -25 -59 -104 -54 -110 4 -3 2 -6 -4 -6
-6 0 -28 -24 -50 -52 -57 -76 -121 -136 -167 -160 -61 -31 -145 -58 -180 -58
l-31 1 43 22 c24 13 40 26 36 29 -9 10 42 53 99 85 26 14 47 32 47 40 0 7 8
16 18 20 9 3 38 23 63 44 25 21 50 35 54 31 5 -4 6 -2 3 3 -3 6 5 20 18 33 13
12 24 20 24 17 0 -4 19 12 43 34 42 41 59 53 38 27z m1566 -9 c-2 -7 6 -41 19
-76 25 -67 31 -106 14 -96 -5 3 -10 21 -10 40 0 19 -4 36 -9 39 -8 5 -13 23
-27 94 -3 15 -1 21 6 17 6 -4 9 -12 7 -18z m-2180 -25 c-10 -10 -17 -23 -17
-29 0 -5 -11 -23 -25 -39 -14 -16 -25 -33 -25 -38 0 -5 -3 -6 -6 -3 -4 4 5 22
20 41 14 19 26 37 26 41 0 10 35 53 39 49 2 -2 -3 -12 -12 -22z m46 13 c-3 -9
-8 -14 -10 -11 -3 3 -2 9 2 15 9 16 15 13 8 -4z m-341 -37 c-7 -7 -12 -8 -12
-2 0 14 12 26 19 19 2 -3 -1 -11 -7 -17z m-28 -14 c3 -8 2 -12 -3 -9 -5 3 -17
-5 -25 -17 -9 -12 -16 -19 -16 -15 0 7 32 56 36 57 1 0 5 -7 8 -16z m2489 -6
c9 -31 2 -33 -11 -3 -6 14 -8 25 -3 25 5 0 11 -10 14 -22z m-1455 -118 c-7
-10 -14 -17 -17 -15 -4 4 18 35 25 35 2 0 -1 -9 -8 -20z m1527 -80 c6 -28 4
-33 -5 -23 -7 6 -14 31 -16 55 -3 47 8 30 21 -32z m-138 -2 c-3 -7 -5 -2 -5
12 0 14 2 19 5 13 2 -7 2 -19 0 -25z m157 -128 c3 -30 8 -83 12 -117 5 -44 3
-63 -5 -63 -6 0 -11 18 -12 43 0 23 -2 50 -4 59 -2 9 -5 41 -7 70 -1 29 -7 56
-12 59 -5 4 -5 12 -1 19 12 19 22 -6 29 -70z m-177 8 c-3 -8 -6 -5 -6 6 -1 11
2 17 5 13 3 -3 4 -12 1 -19z m294 -25 c4 -114 -3 -298 -11 -298 -1 0 -4 -18
-6 -40 -3 -23 -8 -54 -13 -70 -11 -42 -5 90 9 180 6 39 9 116 8 173 -2 56 0
102 4 102 5 0 9 -21 9 -47z m-1891 7 c-8 -5 -22 -9 -30 -9 -10 0 -8 3 5 9 27
12 43 12 25 0z m2005 -120 c-1 -60 -5 -114 -10 -119 -7 -7 -9 25 -7 87 2 87 8
142 15 142 1 0 2 -49 2 -110z m-1615 76 c0 -2 -7 -7 -16 -10 -8 -3 -12 -2 -9
4 6 10 25 14 25 6z m-52 -20 c-7 -8 -17 -12 -22 -9 -4 3 -2 9 5 14 22 13 31
11 17 -5z m272 -29 c0 -2 -12 -14 -27 -28 l-28 -24 24 28 c23 25 31 32 31 24z
m-290 -17 c0 -5 -8 -10 -17 -10 -15 0 -16 2 -3 10 19 12 20 12 20 0z m-370
-17 c14 -9 27 -18 29 -20 8 -6 -32 -43 -47 -43 -9 0 -12 3 -9 7 4 4 -6 12 -23
19 -36 15 -38 31 -7 44 30 12 29 12 57 -7z m330 13 c0 -2 -13 -9 -30 -15 -16
-5 -30 -6 -30 -1 0 5 8 11 18 13 24 7 42 8 42 3z m1674 -33 c-6 -56 -18 -108
-31 -133 -12 -23 -13 -20 -8 35 7 69 25 136 35 130 3 -2 5 -16 4 -32z m-1493
4 c-10 -9 -11 -8 -5 6 3 10 9 15 12 12 3 -3 0 -11 -7 -18z m-82 9 c-2 -2 -17
-6 -34 -10 -22 -5 -26 -4 -15 4 14 9 59 15 49 6z m1411 -88 c0 -49 -5 -47 -13
5 -3 20 -2 37 4 37 5 0 9 -19 9 -42z m-193 -30 c-3 -7 -5 -2 -5 12 0 14 2 19
5 13 2 -7 2 -19 0 -25z m-2611 -36 c-17 -16 -18 -16 -5 5 7 12 15 20 18 17 3
-2 -3 -12 -13 -22z m2814 -27 c0 -11 -4 -26 -9 -33 -5 -8 -8 4 -7 31 1 43 16
44 16 2z m200 35 c0 -5 -5 -10 -11 -10 -5 0 -7 5 -4 10 3 6 8 10 11 10 2 0 4
-4 4 -10z m-2016 -16 c3 -8 2 -12 -4 -9 -6 3 -10 10 -10 16 0 14 7 11 14 -7z
m76 -4 c0 -5 -2 -10 -4 -10 -3 0 -8 5 -11 10 -3 6 -1 10 4 10 6 0 11 -4 11
-10z m315 -10 c-3 -5 -12 -10 -18 -10 -7 0 -6 4 3 10 19 12 23 12 15 0z m-267
-36 c2 -1 -1 -5 -7 -8 -5 -4 -15 4 -22 16 -12 22 -11 22 7 8 10 -8 20 -15 22
-16z m1798 -20 c-4 -20 -10 -34 -12 -31 -3 3 -2 21 2 41 3 21 9 35 11 32 3 -3
2 -21 -1 -42z m71 9 c-3 -10 -5 -4 -5 12 0 17 2 24 5 18 2 -7 2 -21 0 -30z
m-185 -75 c-7 -7 -12 -8 -12 -2 0 14 12 26 19 19 2 -3 -1 -11 -7 -17z m73 -57
c-13 -34 -15 -87 -4 -114 9 -21 9 -31 0 -40 -8 -8 -11 -4 -11 15 0 15 -5 30
-11 33 -11 8 -3 84 11 99 5 5 6 15 3 24 -5 10 -2 13 6 8 7 -5 9 -15 6 -25z
m-1055 -5 c0 -3 -4 -8 -10 -11 -5 -3 -10 -1 -10 4 0 6 5 11 10 11 6 0 10 -2
10 -4z m1085 -66 c3 -5 1 -10 -4 -10 -6 0 -11 5 -11 10 0 6 2 10 4 10 3 0 8
-4 11 -10z m-8 -57 c-3 -10 -5 -4 -5 12 0 17 2 24 5 18 2 -7 2 -21 0 -30z
m-817 6 c-11 -8 -8 -9 13 -4 17 3 26 2 23 -4 -9 -14 15 -19 41 -10 17 6 21 5
16 -6 -3 -10 2 -15 17 -15 13 0 20 -5 17 -12 -2 -7 10 -18 27 -25 20 -7 24
-12 12 -12 -17 -1 -17 -3 -2 -25 18 -28 5 -46 -19 -26 -19 16 -19 1 0 -24 8
-11 15 -29 14 -40 0 -15 -2 -17 -6 -6 -4 8 -14 22 -25 31 -10 9 -18 24 -18 32
0 10 -6 14 -15 11 -8 -4 -15 -1 -15 5 0 6 -7 11 -16 11 -9 0 -12 5 -8 12 4 7
3 8 -5 4 -6 -4 -23 -1 -36 8 -13 8 -56 23 -97 32 -112 25 -130 41 -69 59 15 5
21 4 17 -3 -6 -11 51 1 62 13 3 3 24 5 46 5 32 0 38 -3 26 -11z m769 -47 c0
-26 -5 -56 -10 -67 -6 -14 -8 -2 -6 42 2 34 0 60 -5 57 -4 -3 -5 2 -2 10 11
29 24 5 23 -42z m-1064 -72 c0 -41 -9 -48 -36 -27 -36 28 -27 67 16 67 17 0
20 -6 20 -40z m-75 -2 c0 -19 -2 -20 -10 -8 -13 19 -13 30 0 30 6 0 10 -10 10
-22z m155 -3 c0 -26 -21 -30 -28 -6 -2 11 -2 22 1 26 11 10 27 -2 27 -20z
m-150 -75 c3 -5 1 -10 -4 -10 -6 0 -11 5 -11 10 0 6 2 10 4 10 3 0 8 -4 11
-10z m103 -14 c12 -4 22 -12 22 -17 0 -5 7 -9 15 -9 8 0 15 -4 15 -10 0 -5 7
-7 15 -4 8 4 17 -1 21 -9 5 -14 74 -34 101 -29 6 2 14 -2 18 -8 3 -5 -1 -10
-9 -10 -9 0 -16 -3 -16 -6 0 -12 29 -34 45 -34 9 0 13 -4 10 -10 -3 -5 0 -10
7 -10 9 0 9 -3 -2 -10 -12 -7 -7 -12 22 -24 42 -18 52 -30 57 -67 0 -5 6 -7
12 -3 16 10 30 -18 17 -34 -9 -10 -7 -14 9 -18 12 -3 23 -14 26 -25 6 -23 3
-24 -17 -3 -14 14 -15 12 -10 -15 4 -20 2 -31 -5 -31 -6 0 -11 -9 -11 -21 0
-11 4 -18 9 -15 5 3 11 -3 14 -14 3 -11 10 -20 16 -20 7 0 7 8 1 25 -5 14 -6
25 -1 25 5 0 12 -12 16 -27 3 -15 11 -31 17 -34 17 -11 1 -39 -22 -39 -11 0
-20 4 -20 10 0 5 6 7 14 4 8 -3 17 -1 20 4 3 6 -12 13 -35 17 -29 5 -37 10
-28 16 21 12 -2 28 -26 19 -11 -5 -14 -9 -7 -9 19 -1 14 -36 -8 -56 -12 -10
-18 -25 -16 -32 3 -7 -4 -29 -15 -48 -12 -19 -16 -35 -11 -35 6 0 14 5 17 10
10 17 27 11 23 -7 -2 -12 -11 -17 -26 -15 -22 3 -30 -12 -12 -23 6 -4 8 -11 5
-16 -4 -5 1 -9 9 -9 10 0 13 -6 9 -16 -4 -11 -8 -12 -13 -4 -4 7 -10 -2 -14
-22 -4 -19 -2 -34 4 -36 16 -6 12 -22 -5 -22 -8 0 -15 -9 -15 -20 0 -11 -7
-20 -15 -20 -8 0 -15 -7 -15 -15 0 -8 4 -15 9 -15 5 0 7 -9 4 -20 -3 -11 -10
-20 -15 -20 -5 0 -6 9 -3 20 4 12 2 20 -5 20 -6 0 -13 -14 -17 -31 -4 -22 -8
-27 -14 -17 -7 10 -9 9 -9 -4 0 -10 -4 -18 -10 -18 -5 0 -9 -3 -9 -7 4 -22 -3
-32 -16 -27 -11 4 -15 -1 -15 -17 0 -18 -3 -20 -9 -10 -7 11 -10 10 -14 -5 -2
-10 -5 15 -6 56 -1 48 -7 82 -16 94 -8 11 -15 16 -15 10 -7 -150 -13 -170 -77
-242 -13 -14 -23 -31 -23 -38 0 -8 -7 -14 -15 -14 -8 0 -15 -7 -15 -16 0 -8
-5 -12 -10 -9 -6 4 -18 1 -26 -6 -17 -14 -154 -40 -154 -29 0 4 7 13 16 20 8
8 19 22 25 32 9 16 7 17 -16 8 -15 -6 -35 -15 -46 -20 -10 -6 -19 -7 -19 -2 0
15 30 69 45 82 8 7 15 21 15 32 0 10 7 21 16 25 13 5 13 7 2 14 -10 7 -8 10 9
15 22 6 91 84 74 84 -16 0 -48 53 -34 57 8 3 7 13 -4 33 -15 32 -33 40 -33 15
0 -8 5 -15 10 -15 6 0 10 -4 10 -9 0 -5 -11 -4 -24 2 -16 8 -21 14 -13 19 7 4
8 8 3 8 -4 0 2 9 15 21 23 19 23 20 2 14 -24 -7 -41 10 -18 19 8 3 15 12 15
21 0 8 5 15 11 15 5 0 8 4 4 9 -3 6 3 15 14 20 18 10 27 36 51 145 5 27 4 51
-5 77 -9 26 -11 48 -5 69 5 16 6 30 4 30 -3 0 -2 6 3 13 4 6 6 20 5 30 -2 9 2
17 8 17 7 0 9 7 6 15 -4 10 2 19 15 23 11 5 20 11 20 15 -3 25 0 29 12 19 7
-6 32 -12 56 -15 24 -2 46 -8 50 -13 11 -16 46 -10 49 9 3 15 6 14 24 -9 16
-20 28 -25 49 -22 17 3 30 -1 33 -9 8 -19 26 -16 26 5 0 11 -10 24 -22 30 -13
6 -18 11 -11 11 24 2 1 31 -24 31 -16 0 -22 -4 -17 -11 11 -19 -48 0 -63 19
-11 15 -12 14 -13 -10 0 -16 -5 -28 -11 -28 -5 0 -7 5 -3 11 3 6 0 15 -7 20
-20 12 -29 11 -26 -3 2 -7 -1 -3 -7 9 -5 12 -19 23 -30 25 -12 2 -22 9 -22 16
-1 6 -2 16 -3 21 0 5 -11 11 -23 13 -13 2 -22 9 -20 17 2 8 -1 17 -7 20 -6 4
-6 19 2 41 9 31 14 35 41 34 17 0 41 -4 54 -8z m-111 -28 c-3 -8 -6 -5 -6 6
-1 11 2 17 5 13 3 -3 4 -12 1 -19z m483 -178 c0 -5 -4 -10 -10 -10 -5 0 -10 5
-10 10 0 6 5 10 10 10 6 0 10 -4 10 -10z m230 -100 c0 -5 -2 -10 -4 -10 -3 0
-8 5 -11 10 -3 6 -1 10 4 10 6 0 11 -4 11 -10z m-13 -102 c-8 -35 -33 -105
-56 -154 -22 -50 -57 -137 -77 -195 -47 -136 -107 -260 -162 -334 -55 -73
-168 -185 -187 -185 -8 0 -19 -8 -24 -17 -6 -10 -11 -14 -11 -9 0 5 -6 3 -14
-3 -10 -9 -16 -8 -26 4 -7 9 -10 18 -6 22 3 3 6 1 6 -5 0 -7 5 -12 11 -12 6 0
8 7 5 16 -5 14 -4 15 9 4 9 -7 18 -10 22 -6 3 3 1 6 -5 6 -19 0 -14 18 7 25
10 3 21 15 24 26 3 11 9 18 14 17 4 -1 22 12 40 30 17 17 27 32 22 32 -6 0 -7
5 -4 10 4 6 11 8 16 4 6 -3 10 0 8 7 -3 29 2 38 21 34 11 -2 19 -1 18 3 -1 4
6 24 15 46 9 21 17 48 18 60 0 20 1 20 8 1 7 -18 9 -16 15 12 4 19 3 41 -4 54
-8 14 -9 19 -1 15 6 -4 11 -5 11 -2 0 2 3 13 6 23 5 15 4 16 -6 3 -10 -13 -11
-11 -7 7 3 15 1 20 -9 16 -7 -3 -12 -10 -11 -16 1 -7 -6 -11 -16 -11 -9 1 -16
-3 -15 -10 1 -6 -16 -30 -39 -53 -22 -23 -43 -47 -45 -54 -3 -9 -6 -8 -11 4
-3 9 -2 17 3 17 6 0 10 7 10 15 0 8 5 15 11 15 14 0 31 18 54 57 10 18 23 29
29 26 6 -4 5 0 -2 9 -11 14 -11 18 1 25 8 4 19 18 26 31 6 12 18 22 26 22 17
0 28 31 19 56 -5 15 -4 16 5 4 8 -12 12 -10 19 10 5 14 7 31 4 39 -4 10 1 11
18 6 16 -5 20 -4 15 4 -4 7 -1 18 5 26 10 12 9 15 -4 15 -9 0 -16 -7 -16 -17
0 -22 -13 -8 -15 16 -1 13 4 17 16 14 15 -4 16 0 9 34 -9 40 0 61 20 48 9 -6
9 -9 0 -15 -8 -5 -10 -18 -5 -40 5 -24 10 -29 18 -21 9 9 8 14 -2 20 -11 7 -9
14 12 35 14 14 21 28 16 31 -5 4 -9 1 -9 -6 0 -7 -2 -10 -5 -7 -9 8 6 58 16
58 5 0 9 -9 9 -19 0 -11 5 -23 11 -27 8 -4 9 6 5 37 -5 40 -5 41 5 12 10 -35
25 -46 16 -13 -3 11 -1 23 4 26 6 3 7 15 3 26 -6 20 23 51 38 42 5 -3 8 3 9
13 1 13 3 11 9 -7 l8 -25 1 27 c1 14 4 34 7 43 6 15 8 15 22 1 14 -13 14 -22
-1 -78z m-73 56 c3 -8 2 -12 -4 -9 -6 3 -10 10 -10 16 0 14 7 11 14 -7z m-49
-54 c3 -5 1 -10 -4 -10 -6 0 -11 5 -11 10 0 6 2 10 4 10 3 0 8 -4 11 -10z
m-105 -74 c0 -3 -4 -8 -10 -11 -5 -3 -10 -1 -10 4 0 6 5 11 10 11 6 0 10 -2
10 -4z m-666 -115 c16 -6 17 -9 5 -13 -8 -3 -26 0 -40 8 -21 12 -22 13 -4 13
11 0 29 -4 39 -8z m1156 -83 c0 -5 -6 -8 -14 -8 -9 0 -12 7 -9 21 4 16 8 17
14 7 5 -7 9 -16 9 -20z m-1346 -54 c3 -8 10 -12 16 -9 11 7 12 3 4 -19 -5 -12
-9 -13 -25 -3 -10 6 -19 20 -19 29 0 22 16 24 24 2z m80 -29 c-4 -8 -14 -15
-23 -15 -14 1 -13 3 3 15 25 19 27 19 20 0z m103 0 c-4 -8 -2 -17 3 -20 6 -4
10 -11 10 -17 0 -6 -9 -3 -20 7 -15 14 -17 21 -9 32 15 17 23 17 16 -2z m-77
-35 c0 -5 -10 -10 -22 -9 -22 0 -22 1 -3 9 11 5 21 9 23 9 1 1 2 -3 2 -9z
m-124 -67 c-11 -21 -15 -23 -16 -10 0 24 22 65 27 50 2 -6 -3 -24 -11 -40z
m47 16 c5 -4 5 -9 -2 -13 -6 -4 -11 -2 -11 4 0 6 -4 9 -9 6 -5 -4 -7 4 -3 16
4 16 7 18 10 8 3 -8 9 -18 15 -21z m42 -7 c-3 -3 -11 0 -18 7 -9 10 -8 11 6 5
10 -3 15 -9 12 -12z m703 -87 c-3 -3 -9 2 -12 12 -6 14 -5 15 5 6 7 -7 10 -15
7 -18z m-898 -45 c0 -5 -5 -10 -11 -10 -5 0 -7 5 -4 10 3 6 8 10 11 10 2 0 4
-4 4 -10z m-1570 -10 c0 -5 -4 -10 -10 -10 -5 0 -10 5 -10 10 0 6 5 10 10 10
6 0 10 -4 10 -10z m2167 -142 c-3 -8 -6 -5 -6 6 -1 11 2 17 5 13 3 -3 4 -12 1
-19z m-297 2 c0 -5 -5 -10 -11 -10 -5 0 -7 5 -4 10 3 6 8 10 11 10 2 0 4 -4 4
-10z m-1763 -52 c-3 -8 -6 -5 -6 6 -1 11 2 17 5 13 3 -3 4 -12 1 -19z m1987
-81 c9 9 7 -10 -3 -26 -7 -10 -10 -8 -16 10 -4 13 -12 31 -19 39 -6 9 -1 6 10
-6 12 -13 25 -20 28 -17z m56 -80 c0 -10 16 -53 35 -95 20 -41 34 -80 32 -85
-7 -22 -38 -15 -50 11 -6 15 -19 39 -29 54 -14 20 -20 50 -22 113 l-2 86 17
-33 c10 -18 18 -41 19 -51z m-190 52 c15 -28 4 -38 -15 -13 -17 22 -19 34 -5
34 5 0 14 -9 20 -21z m255 -30 c-10 -15 -25 -10 -19 6 4 8 10 12 15 9 5 -3 7
-10 4 -15z m355 -34 c0 -9 -42 -95 -46 -95 -6 0 6 52 18 78 10 19 28 31 28 17z
m270 -37 c0 -5 -11 -1 -25 8 -14 9 -25 18 -25 20 0 2 11 -2 25 -8 14 -6 25
-15 25 -20z m80 -59 c0 -6 -4 -7 -10 -4 -5 3 -10 11 -10 16 0 6 5 7 10 4 6 -3
10 -11 10 -16z m-320 -34 c0 -16 -27 -32 -37 -21 -7 7 16 36 28 36 5 0 9 -7 9
-15z m-70 -19 c0 -3 -4 -8 -10 -11 -5 -3 -10 -1 -10 4 0 6 5 11 10 11 6 0 10
-2 10 -4z m34 -22 c9 -3 14 -10 11 -15 -7 -10 -35 0 -35 12 0 11 3 11 24 3z
m55 -40 c13 0 26 -6 29 -14 3 -12 2 -12 -8 -3 -15 14 -40 6 -40 -13 0 -8 -10
-14 -22 -14 -19 0 -20 2 -6 18 9 9 13 24 11 32 -3 10 -2 11 4 4 4 -6 19 -11
32 -10z m76 -34 c3 -5 2 -10 -4 -10 -5 0 -13 5 -16 10 -3 6 -2 10 4 10 5 0 13
-4 16 -10z m60 -20 c3 -5 1 -10 -4 -10 -6 0 -11 5 -11 10 0 6 2 10 4 10 3 0 8
-4 11 -10z m365 -121 c0 -14 -17 -10 -23 5 -4 10 -1 13 9 9 7 -3 14 -9 14 -14z
m-75 -19 c10 -11 13 -20 7 -20 -6 0 -16 9 -22 20 -6 11 -9 20 -7 20 2 0 12 -9
22 -20z m-138 -102 c-7 -4 -8 -8 -3 -8 5 0 3 -7 -4 -15 -6 -8 -9 -19 -5 -25 3
-5 2 -10 -2 -10 -9 0 -73 85 -73 97 0 3 9 -2 20 -12 20 -18 21 -18 37 4 l16
24 13 -24 c9 -18 9 -26 1 -31z m-94 -3 c4 -8 3 -16 -1 -19 -4 -3 -9 4 -9 15
-2 23 3 25 10 4z m-2433 -96 c0 -5 -4 -9 -10 -9 -5 0 -10 7 -10 16 0 8 5 12
10 9 6 -3 10 -10 10 -16z m37 15 c-3 -3 -12 -4 -19 -1 -8 3 -5 6 6 6 11 1 17
-2 13 -5z"/>
<path d="M3320 3851 c0 -6 4 -13 10 -16 6 -3 7 1 4 9 -7 18 -14 21 -14 7z"/>
<path d="M3401 3554 c0 -11 3 -14 6 -6 3 7 2 16 -1 19 -3 4 -6 -2 -5 -13z"/>
<path d="M840 3665 c-7 -9 -11 -18 -8 -20 3 -3 11 1 18 10 7 9 11 18 8 20 -3
3 -11 -1 -18 -10z"/>
<path d="M2828 1873 c7 -3 16 -2 19 1 4 3 -2 6 -13 5 -11 0 -14 -3 -6 -6z"/>
<path d="M2900 1789 c0 -5 5 -7 10 -4 6 3 10 8 10 11 0 2 -4 4 -10 4 -5 0 -10
-5 -10 -11z"/>
<path d="M2910 1560 c0 -5 5 -10 10 -10 6 0 10 5 10 10 0 6 -4 10 -10 10 -5 0
-10 -4 -10 -10z"/>
<path d="M2430 1330 c0 -5 5 -10 10 -10 6 0 10 5 10 10 0 6 -4 10 -10 10 -5 0
-10 -4 -10 -10z"/>
<path d="M2945 1140 c-3 -5 -2 -10 4 -10 5 0 13 5 16 10 3 6 2 10 -4 10 -5 0
-13 -4 -16 -10z"/>
<path d="M2937 1104 c2 -7 11 -10 19 -7 19 7 18 10 -5 16 -13 3 -18 1 -14 -9z"/>
<path d="M2900 1009 c0 -5 5 -7 10 -4 6 3 10 8 10 11 0 2 -4 4 -10 4 -5 0 -10
-5 -10 -11z"/>
<path d="M3331 188 c-1 -10 -6 -18 -12 -18 -5 0 -7 -5 -3 -11 9 -15 28 16 20
34 -2 7 -5 4 -5 -5z"/>
<path d="M3370 3985 c0 -17 41 -83 64 -102 14 -13 26 -27 26 -33 0 -5 4 -10
10 -10 5 0 2 13 -8 29 -9 16 -21 29 -27 28 -5 -1 -10 8 -10 20 0 13 -12 34
-27 48 -16 14 -28 23 -28 20z"/>
<path d="M800 3908 c0 -19 2 -20 10 -8 13 19 13 30 0 30 -5 0 -10 -10 -10 -22z"/>
<path d="M3410 3864 c0 -4 52 -86 67 -103 1 -2 6 -1 10 3 4 4 1 11 -7 16 -10
7 -11 10 -2 10 6 0 12 5 12 11 0 8 -4 8 -14 0 -11 -10 -18 -4 -32 28 -16 35
-34 53 -34 35z"/>
<path d="M3504 3772 c1 -25 48 -112 61 -112 3 0 -5 20 -17 45 -12 24 -25 42
-30 39 -4 -3 -8 0 -8 5 0 14 13 14 28 -1 7 -7 12 -8 12 -2 0 6 -11 21 -24 33
l-24 22 2 -29z"/>
<path d="M3606 3587 c3 -10 9 -15 12 -12 3 3 0 11 -7 18 -10 9 -11 8 -5 -6z"/>
<path d="M1250 2737 c-17 -10 -30 -20 -30 -21 0 -2 13 -1 30 2 16 2 28 7 25
11 -2 4 15 7 39 7 23 -1 43 4 43 9 0 17 -76 12 -107 -8z"/>
<path d="M1373 2703 c9 -2 23 -2 30 0 6 3 -1 5 -18 5 -16 0 -22 -2 -12 -5z"/>
<path d="M1165 2660 c-3 -5 1 -10 9 -10 9 0 16 5 16 10 0 6 -4 10 -9 10 -6 0
-13 -4 -16 -10z"/>
<path d="M1362 2519 c-23 -4 -52 -15 -65 -24 -22 -16 -22 -16 8 -9 17 4 39 11
50 17 11 5 56 13 100 17 l80 7 -65 0 c-36 1 -84 -3 -108 -8z"/>
<path d="M1957 2504 c4 -12 3 -15 -5 -10 -7 4 -10 2 -6 -7 8 -21 32 -17 26 5
-2 10 -8 21 -13 24 -5 3 -6 -3 -2 -12z"/>
<path d="M1596 2499 c4 -7 -4 -9 -23 -6 -31 5 -153 -15 -215 -34 -30 -10 -34
-14 -24 -25 8 -7 27 -11 45 -9 19 3 36 -2 46 -12 9 -8 33 -19 55 -24 21 -5 56
-20 76 -34 20 -14 47 -25 60 -25 12 0 25 -4 29 -10 3 -5 13 -6 21 -3 9 3 21
-3 30 -16 9 -12 19 -19 24 -16 5 3 11 -3 14 -12 3 -10 4 -6 2 10 -2 15 0 27 4
27 11 0 21 -30 14 -41 -3 -5 2 -9 10 -9 8 0 17 10 19 23 l4 22 2 -23 c0 -13 5
-21 11 -17 5 3 7 12 4 20 -6 15 23 13 71 -5 27 -10 33 1 11 20 -20 15 -57 80
-48 80 5 0 13 -5 20 -12 6 -6 15 -8 19 -4 10 10 -33 45 -89 72 -61 30 -200 76
-192 63z m-103 -69 c-5 -20 -28 -17 -37 5 -3 10 0 12 11 8 11 -4 14 -2 9 5 -4
8 -2 10 7 6 9 -3 13 -13 10 -24z m102 -14 c0 -11 -6 -21 -14 -24 -10 -3 -12 0
-8 12 4 10 3 15 -3 11 -6 -3 -10 1 -10 10 0 10 7 15 18 13 9 -2 17 -12 17 -22z
m174 -35 c18 -18 20 -18 24 -3 3 10 5 5 6 -10 1 -29 -4 -31 -54 -28 -39 2 -41
5 -27 35 14 30 26 31 51 6z"/>
<path d="M3752 2305 c0 -16 2 -22 5 -12 2 9 2 23 0 30 -3 6 -5 -1 -5 -18z"/>
<path d="M1254 1670 c-12 -5 -25 -13 -28 -19 -4 -6 8 -4 26 3 18 7 40 16 48
19 11 4 9 5 -5 6 -11 0 -30 -4 -41 -9z"/>
<path d="M1795 1590 c17 -11 35 -20 40 -20 6 0 -3 9 -20 20 -16 11 -34 20 -40
20 -5 0 4 -9 20 -20z"/>
<path d="M3661 1494 c0 -11 3 -14 6 -6 3 7 2 16 -1 19 -3 4 -6 -2 -5 -13z"/>
<path d="M1238 1463 c-21 -5 -24 -33 -4 -33 7 0 16 9 19 20 3 11 4 19 4 19 -1
-1 -10 -3 -19 -6z"/>
<path d="M2022 1205 c-6 -14 -16 -25 -22 -25 -5 0 -10 -7 -10 -16 0 -8 4 -13
9 -10 5 4 12 0 15 -6 3 -7 3 -3 0 9 -4 17 -2 21 9 17 7 -2 20 2 27 11 11 13
10 14 -5 9 -14 -6 -16 -3 -10 14 9 30 1 28 -13 -3z"/>
<path d="M1837 1053 c-4 -3 -7 -11 -7 -17 0 -6 5 -5 12 2 6 6 9 14 7 17 -3 3
-9 2 -12 -2z"/>
<path d="M373 985 c0 -22 2 -30 4 -17 2 12 2 30 0 40 -3 9 -5 -1 -4 -23z"/>
<path d="M323 895 c0 -22 2 -30 4 -17 2 12 2 30 0 40 -3 9 -5 -1 -4 -23z"/>
<path d="M3210 840 c0 -15 47 -42 67 -38 13 2 9 9 -20 26 -43 25 -47 26 -47
12z"/>
<path d="M3345 840 c3 -5 11 -10 16 -10 6 0 7 5 4 10 -3 6 -11 10 -16 10 -6 0
-7 -4 -4 -10z"/>
<path d="M2420 775 c1 -6 7 -21 16 -35 l15 -25 -7 25 c-7 26 -24 52 -24 35z"/>
<path d="M3230 759 c0 -5 9 -9 20 -9 11 0 20 2 20 4 0 2 -9 6 -20 9 -11 3 -20
1 -20 -4z"/>
<path d="M3355 760 c3 -5 8 -10 11 -10 2 0 4 5 4 10 0 6 -5 10 -11 10 -5 0 -7
-4 -4 -10z"/>
<path d="M3110 735 c0 -8 4 -15 10 -15 5 0 7 7 4 15 -4 8 -8 15 -10 15 -2 0
-4 -7 -4 -15z"/>
<path d="M3330 702 c0 -12 19 -26 26 -19 2 2 -2 10 -11 17 -9 8 -15 8 -15 2z"/>
<path d="M2476 667 c3 -10 9 -15 12 -12 3 3 0 11 -7 18 -10 9 -11 8 -5 -6z"/>
<path d="M2420 640 c0 -5 5 -10 11 -10 5 0 7 5 4 10 -3 6 -8 10 -11 10 -2 0
-4 -4 -4 -10z"/>
<path d="M3030 630 c0 -5 5 -10 10 -10 6 0 10 5 10 10 0 6 -4 10 -10 10 -5 0
-10 -4 -10 -10z"/>
<path d="M530 619 c0 -5 -4 -8 -9 -5 -5 3 -11 -3 -14 -14 -3 -11 -1 -20 4 -20
5 0 9 6 9 13 0 8 4 7 10 -3 8 -12 10 -9 10 13 0 15 -2 27 -5 27 -3 0 -5 -5 -5
-11z"/>
<path d="M421 594 c0 -11 3 -14 6 -6 3 7 2 16 -1 19 -3 4 -6 -2 -5 -13z"/>
<path d="M1856 575 c-11 -8 -15 -15 -9 -15 6 0 16 7 23 15 16 19 11 19 -14 0z"/>
<path d="M460 535 c0 -14 3 -25 8 -25 4 0 7 -30 8 -67 3 -176 6 -237 11 -225
2 6 9 10 14 6 5 -3 8 -2 7 3 -2 4 2 9 7 10 6 1 9 -7 7 -17 -2 -11 2 -20 8 -20
7 0 10 7 6 15 -3 9 3 19 14 25 23 12 27 35 5 27 -21 -9 -30 12 -8 21 22 9 31
37 8 29 -8 -4 -15 -2 -15 3 0 6 4 10 9 10 12 0 22 30 14 43 -4 6 -10 0 -15
-14 -9 -23 -10 -23 -27 16 -10 22 -14 42 -9 43 4 2 8 8 8 13 0 6 -4 7 -10 4
-5 -3 -10 1 -10 9 0 9 -4 16 -8 16 -16 0 -10 39 9 56 10 9 19 24 18 33 0 10
-2 12 -6 4 -2 -7 -9 -13 -14 -13 -6 0 -7 5 -4 10 3 6 -3 10 -14 10 -16 0 -21
-6 -21 -25z m23 -5 c3 -11 1 -18 -4 -14 -5 3 -9 12 -9 20 0 20 7 17 13 -6z"/>
<path d="M1810 531 c-16 -31 -12 -36 10 -11 23 26 24 30 10 30 -5 0 -14 -9
-20 -19z"/>
<path d="M3450 530 c0 -5 5 -10 10 -10 6 0 10 5 10 10 0 6 -4 10 -10 10 -5 0
-10 -4 -10 -10z"/>
<path d="M3483 515 c-9 -10 -9 -16 -2 -20 14 -9 22 0 17 18 -2 13 -5 13 -15 2z"/>
<path d="M430 457 c0 -25 4 -48 9 -51 8 -5 3 84 -5 93 -2 2 -4 -16 -4 -42z"/>
<path d="M3516 482 c-6 -19 27 -95 38 -85 3 4 6 1 6 -5 0 -6 9 -13 19 -17 11
-3 23 -15 26 -26 7 -21 25 -16 25 7 0 8 -4 12 -10 9 -5 -3 -7 0 -4 8 3 9 -11
36 -30 62 -29 37 -37 43 -42 30 -5 -13 -9 -14 -15 -4 -4 7 -3 19 3 26 7 9 7
13 0 13 -6 0 -13 -8 -16 -18z"/>
<path d="M536 440 c3 -14 11 -32 16 -40 6 -10 7 -7 2 10 -3 14 -11 32 -16 40
-6 10 -7 7 -2 -10z"/>
<path d="M341 424 c0 -11 3 -14 6 -6 3 7 2 16 -1 19 -3 4 -6 -2 -5 -13z"/>
<path d="M1971 381 c-12 -11 -18 -21 -14 -24 4 -3 16 6 26 19 22 29 18 31 -12
5z"/>
<path d="M3410 379 c0 -18 26 -56 34 -49 3 3 -4 19 -14 35 -12 18 -20 24 -20
14z"/>
<path d="M2510 371 c0 -6 5 -13 10 -16 6 -3 10 1 10 9 0 9 -4 16 -10 16 -5 0
-10 -4 -10 -9z"/>
<path d="M2861 353 c-11 -13 -11 -17 2 -31 15 -14 14 -18 -9 -39 -31 -28 -40
-29 -40 -3 0 11 6 20 13 20 6 0 14 4 17 9 3 5 -5 8 -18 7 -13 0 -24 -3 -24 -6
2 -25 -5 -32 -12 -12 -9 22 -32 32 -27 11 1 -6 -8 -15 -20 -20 -14 -5 -23 -5
-23 1 0 6 5 10 10 10 6 0 10 5 10 12 0 9 -3 9 -12 0 -15 -15 -79 -16 -96 -2
-6 6 -10 7 -7 4 7 -10 -15 -34 -32 -34 -8 0 -12 3 -9 8 2 4 -7 12 -20 19 -13
6 -22 7 -18 2 3 -5 -2 -9 -10 -9 -9 0 -16 6 -16 13 0 7 -9 18 -20 24 -16 11
-18 10 -14 -1 3 -8 0 -17 -7 -22 -8 -4 -10 -3 -5 4 4 7 3 12 -3 12 -5 0 -16 3
-24 6 -8 3 -17 -2 -20 -10 -4 -10 -1 -13 9 -9 10 4 12 0 8 -13 -4 -11 -11 -24
-16 -31 -6 -8 -4 -10 10 -7 10 3 24 -2 31 -10 9 -11 10 -16 2 -16 -6 0 -11 -5
-11 -11 0 -6 -10 -25 -22 -42 -13 -18 -24 -39 -26 -47 -2 -8 -10 -20 -17 -26
-8 -6 -12 -13 -9 -16 3 -3 -9 -16 -26 -28 -19 -14 -29 -28 -26 -37 3 -8 2 -12
-3 -9 -5 3 -11 -1 -15 -9 -11 -29 17 -15 69 34 40 38 63 51 105 60 57 12 78 8
39 -8 -17 -7 -19 -10 -6 -10 9 -1 17 -7 17 -15 0 -8 9 -17 20 -21 11 -3 29
-18 40 -32 11 -14 20 -21 20 -15 0 6 -17 29 -38 51 -40 42 -37 51 14 51 13 0
24 4 24 9 0 6 17 8 38 5 28 -3 32 -2 17 5 -18 9 -17 10 8 10 15 1 27 -4 27
-10 0 -6 7 -3 16 5 9 10 35 17 62 17 73 3 80 4 87 11 4 4 -9 10 -29 13 -20 4
-36 10 -36 14 1 15 40 51 55 51 14 0 15 3 5 15 -11 13 -6 15 33 15 25 0 52 3
61 6 21 8 21 40 0 48 -12 5 -14 1 -8 -17 6 -20 4 -20 -18 6 -13 15 -31 27 -40
27 -9 0 -18 6 -20 14 -2 12 -5 12 -17 -1z m-264 -229 c-3 -3 -12 -4 -19 -1 -8
3 -5 6 6 6 11 1 17 -2 13 -5z"/>
<path d="M443 295 c0 -38 2 -53 4 -32 2 20 2 52 0 70 -2 17 -4 1 -4 -38z"/>
<path d="M1930 352 c0 -5 -10 -14 -22 -20 -23 -11 -23 -11 -2 -11 25 -1 51 24
34 34 -5 3 -10 2 -10 -3z"/>
<path d="M2825 349 c-4 -6 -5 -12 -2 -15 2 -3 7 2 10 11 7 17 1 20 -8 4z"/>
<path d="M3637 333 c-4 -3 -7 -13 -7 -22 1 -13 3 -13 11 2 11 19 8 33 -4 20z"/>
<path d="M3405 310 c-3 -5 -1 -10 4 -10 6 0 11 5 11 10 0 6 -2 10 -4 10 -3 0
-8 -4 -11 -10z"/>
<path d="M2990 288 c0 -12 1 -19 3 -17 1 2 9 12 16 22 12 14 11 17 -3 17 -10
0 -16 -8 -16 -22z"/>
<path d="M3667 283 c-4 -3 -7 -11 -7 -17 0 -6 5 -5 12 2 6 6 9 14 7 17 -3 3
-9 2 -12 -2z"/>
<path d="M550 219 c0 -5 4 -8 9 -5 7 5 21 -14 21 -28 0 -2 -15 -3 -32 -3 -60
-1 -70 -3 -66 -15 3 -8 21 -12 49 -11 24 1 35 -1 25 -4 -14 -4 -15 -7 -6 -13
7 -5 -1 -10 -24 -14 -43 -8 -47 -23 -8 -29 26 -4 26 -4 5 -12 -13 -4 -23 -12
-23 -17 0 -17 64 0 82 22 9 11 24 20 33 20 9 0 13 5 10 10 -3 5 -15 10 -26 10
-12 0 -19 7 -19 20 0 18 3 19 20 10 16 -8 20 -8 20 4 0 8 -6 16 -12 18 -7 3
-13 13 -13 23 0 11 -9 19 -22 21 -13 2 -23 -1 -23 -7z m15 -118 c3 -5 1 -12
-5 -16 -5 -3 -10 1 -10 9 0 18 6 21 15 7z"/>
<path d="M700 220 c0 -5 5 -10 11 -10 5 0 7 5 4 10 -3 6 -8 10 -11 10 -2 0 -4
-4 -4 -10z"/>
<path d="M710 185 c0 -8 5 -15 10 -15 6 0 10 7 10 15 0 8 -4 15 -10 15 -5 0
-10 -7 -10 -15z"/>
<path d="M725 149 c-4 -6 -5 -12 -2 -15 2 -3 7 2 10 11 7 17 1 20 -8 4z"/>
<path d="M2590 71 c28 -23 37 -26 43 -15 5 8 12 12 18 9 15 -10 10 1 -7 15 -8
8 -14 9 -13 4 4 -23 -3 -24 -27 -5 -41 32 -53 25 -14 -8z"/>
<path d="M575 57 c-7 -10 -16 -17 -21 -16 -32 6 -54 -3 -54 -21 0 -18 7 -20
70 -20 68 0 70 1 70 25 0 21 -5 25 -32 26 -27 0 -29 2 -13 8 11 5 23 7 27 5 4
-3 9 0 13 6 11 18 -47 6 -60 -13z"/>
<path d="M465 60 c3 -5 8 -10 11 -10 2 0 4 5 4 10 0 6 -5 10 -11 10 -5 0 -7
-4 -4 -10z"/>
<path d="M3135 50 c-4 -6 -10 -8 -15 -5 -4 3 -10 -5 -13 -16 -4 -15 -11 -19
-25 -14 -11 3 -23 1 -27 -5 -5 -8 16 -10 67 -8 57 2 73 6 76 19 2 9 -8 20 -23
27 -31 15 -32 15 -40 2z"/>
<path d="M670 35 c0 -8 4 -15 10 -15 5 0 7 7 4 15 -4 8 -8 15 -10 15 -2 0 -4
-7 -4 -15z"/>
<path d="M471 14 c0 -11 3 -14 6 -6 3 7 2 16 -1 19 -3 4 -6 -2 -5 -13z"/>
<path d="M3440 10 c8 -5 20 -10 25 -10 6 0 3 5 -5 10 -8 5 -19 10 -25 10 -5 0
-3 -5 5 -10z"/>
</g>
</svg>
